<?xml version="1.0" standalone="no"?>
<!DOCTYPE svg PUBLIC "-//W3C//DTD SVG 20010904//EN"
 "http://www.w3.org/TR/2001/REC-SVG-20010904/DTD/svg10.dtd">
<svg version="1.0" xmlns="http://www.w3.org/2000/svg"
 width="295.000000pt" height="300.000000pt" viewBox="0 0 295.000000 300.000000"
 preserveAspectRatio="xMidYMid meet">

<g transform="translate(0.000000,300.000000) scale(0.100000,-0.100000)"
fill="#000000" stroke="none">
<path d="M0 1500 l0 -1500 1475 0 1475 0 0 1500 0 1500 -1475 0 -1475 0 0
-1500z m1532 640 c59 -102 108 -191 108 -199 0 -12 -136 -258 -197 -353 l-23
-38 -224 0 c-200 0 -225 2 -239 18 -34 38 -207 348 -207 372 0 24 192 366 215
382 5 5 111 7 235 5 l225 -2 107 -185z m684 -278 c21 -14 214 -359 214 -383 0
-23 -174 -334 -208 -372 -14 -16 -36 -17 -241 -15 l-226 3 -107 185 c-60 101
-108 191 -108 199 0 14 132 250 197 354 l23 37 223 0 c122 0 227 -4 233 -8z
m-773 -489 c61 -96 197 -342 197 -354 0 -8 -49 -97 -108 -199 l-107 -185 -226
-3 c-205 -2 -227 -1 -241 15 -35 39 -208 349 -208 373 0 25 192 368 214 382 6
4 111 8 233 8 l223 0 23 -37z"/>
</g>
</svg>
