<?xml version="1.0" standalone="no"?>
<!DOCTYPE svg PUBLIC "-//W3C//DTD SVG 20010904//EN"
 "http://www.w3.org/TR/2001/REC-SVG-20010904/DTD/svg10.dtd">
<svg version="1.0" xmlns="http://www.w3.org/2000/svg"
 width="1729.000000pt" height="838.000000pt" viewBox="0 0 1729.000000 838.000000"
 preserveAspectRatio="xMidYMid meet">

<g transform="translate(0.000000,838.000000) scale(0.100000,-0.100000)"
fill="#000000" stroke="none">
<path d="M0 4190 l0 -4190 8645 0 8645 0 0 4190 0 4190 -8645 0 -8645 0 0
-4190z m8324 2668 c14 -13 108 -165 208 -338 141 -244 182 -323 182 -350 0
-27 -41 -105 -183 -350 -100 -173 -191 -324 -202 -335 -19 -19 -33 -20 -415
-20 l-396 0 -22 26 c-41 47 -386 655 -386 680 0 30 360 656 396 687 25 22 25
22 409 22 l384 0 25 -22z m1455 -845 c44 -42 391 -648 391 -684 0 -43 -371
-682 -405 -697 -18 -9 -138 -12 -405 -12 -379 0 -379 0 -404 23 -15 12 -108
164 -208 337 -142 246 -182 323 -182 350 1 27 42 107 182 350 100 173 193 325
207 338 26 22 26 22 410 22 l385 0 29 -27z m-1450 -838 c11 -11 102 -162 202
-335 140 -242 183 -323 183 -350 0 -27 -39 -103 -182 -350 -101 -173 -194
-325 -208 -337 l-25 -23 -384 0 c-384 0 -384 0 -410 23 -35 30 -395 656 -395
687 0 13 79 160 177 330 201 347 208 358 237 370 11 5 193 8 403 7 368 -2 383
-3 402 -22z m-2739 -2110 c58 -30 60 -45 60 -373 l0 -300 133 -168 c152 -193
191 -225 286 -232 67 -5 95 6 116 49 14 25 15 69 13 285 l-3 256 -28 24 c-41
35 -97 33 -139 -5 l-33 -29 -5 -251 -5 -251 -22 15 c-13 9 -64 69 -114 133
l-91 117 4 70 c6 82 31 138 82 183 54 47 91 54 278 50 l166 -3 43 -30 c27 -19
54 -50 71 -84 27 -52 28 -58 28 -210 0 -148 -1 -160 -25 -208 -26 -51 -65 -88
-118 -111 -34 -15 -235 -16 -272 -2 l-26 10 3 -196 3 -196 33 -29 c42 -38 97
-40 135 -5 31 29 35 44 40 162 2 76 7 97 30 137 15 25 41 56 58 68 34 24 117
52 130 43 5 -3 9 -64 9 -135 0 -145 -10 -182 -63 -238 -58 -61 -93 -71 -262
-71 -82 0 -167 5 -188 11 -47 13 -102 60 -130 113 -21 39 -22 57 -27 311 l-5
270 -126 160 c-149 188 -195 223 -302 224 -41 1 -53 -4 -78 -28 l-29 -29 0
-482 0 -482 29 -29 c36 -35 93 -39 158 -10 l41 19 -13 39 c-11 30 -14 132 -15
481 0 243 3 442 6 442 20 0 54 -35 134 -136 l90 -116 0 -379 0 -379 -67 0
c-50 0 -77 5 -100 20 -30 18 -33 18 -65 2 -24 -12 -64 -18 -143 -20 -104 -3
-113 -2 -165 25 -36 18 -65 43 -85 71 l-30 44 0 407 0 407 28 42 c15 23 46 54
69 69 41 27 45 28 185 28 l143 0 0 223 0 222 70 0 c44 0 82 -6 100 -15z m6200
0 c56 -29 65 -61 68 -262 l4 -181 28 10 c16 5 80 8 143 6 104 -3 117 -5 155
-31 23 -15 54 -46 69 -69 l28 -42 3 -478 3 -478 -69 0 c-83 0 -130 26 -149 80
-8 25 -12 166 -12 493 l-1 459 -29 29 c-24 23 -38 29 -75 29 -24 0 -56 -4 -70
-10 l-26 -10 0 -535 0 -535 -70 0 c-44 0 -82 6 -100 15 -62 32 -60 10 -60 737
0 424 -4 676 -10 700 -16 57 -54 81 -117 76 -139 -12 -206 -143 -157 -309 19
-64 41 -103 105 -183 59 -74 76 -133 59 -205 -20 -86 -114 -171 -190 -171
l-30 0 0 169 c0 178 -5 206 -41 240 -25 23 -86 28 -120 11 -48 -26 -49 -38
-49 -529 0 -494 1 -500 51 -527 44 -22 85 -17 121 15 32 29 32 30 38 142 6
123 17 154 67 200 37 35 80 56 123 61 l35 3 0 -140 c0 -154 -10 -189 -72 -247
-52 -50 -88 -58 -260 -58 -177 0 -211 9 -270 71 -62 66 -63 70 -63 483 l0 374
28 53 c17 34 44 65 71 84 l43 30 173 3 c137 3 180 0 209 -12 l36 -15 -25 37
c-35 50 -65 153 -65 218 0 93 40 160 115 195 54 25 309 28 355 4z m-5082 -441
c12 -8 30 -30 40 -47 15 -29 18 -80 22 -505 l5 -474 28 -24 c58 -50 146 -21
167 54 6 23 10 207 10 480 0 486 0 486 60 517 18 9 56 15 100 15 l70 0 0 -429
c0 -248 -4 -451 -10 -482 -13 -67 -48 -121 -102 -156 l-42 -28 -186 0 -186 0
-42 28 c-23 15 -54 46 -69 69 l-28 42 -3 478 -3 478 73 0 c51 0 81 -5 96 -16z
m1580 0 c47 -19 88 -58 115 -109 18 -34 22 -62 25 -177 l4 -138 -31 0 c-66 0
-144 50 -179 115 -11 20 -18 68 -22 144 -6 112 -6 113 -38 142 -45 41 -102 40
-143 0 l-29 -29 0 -151 c0 -144 1 -151 24 -178 23 -26 30 -28 133 -34 119 -7
166 -24 214 -76 59 -63 64 -84 64 -263 0 -181 -8 -212 -72 -272 -52 -50 -88
-58 -260 -58 -174 0 -210 9 -267 66 -55 55 -66 95 -66 247 l0 139 33 -7 c56
-12 117 -46 143 -81 39 -51 53 -100 54 -191 0 -94 12 -128 51 -149 44 -22 85
-17 121 15 l33 29 3 239 c2 151 0 251 -7 274 -17 58 -49 72 -178 79 -103 5
-116 8 -155 35 -55 38 -98 120 -98 184 0 87 61 178 140 210 14 5 98 10 188 10
126 1 171 -3 200 -15z m778 -3 c53 -24 109 -91 123 -146 14 -57 14 -273 0
-330 -15 -59 -77 -129 -132 -150 -33 -12 -69 -16 -153 -13 -60 2 -117 7 -126
12 -17 8 -18 -4 -18 -177 0 -202 5 -229 51 -253 44 -22 85 -17 121 15 32 29
32 30 38 142 6 123 17 154 67 200 37 35 80 56 123 61 l35 3 0 -140 c0 -154
-10 -189 -72 -247 -52 -50 -88 -58 -258 -58 -173 0 -205 8 -264 63 -70 67 -71
69 -71 488 l0 375 26 52 c25 50 61 84 114 109 16 7 86 12 190 12 140 0 171 -2
206 -18z m772 0 c45 -23 96 -75 114 -116 9 -20 14 -106 18 -268 l5 -238 64
138 c183 395 213 443 292 483 31 16 58 20 141 20 115 0 162 -15 210 -66 49
-52 58 -91 58 -239 l0 -135 -30 0 c-39 0 -97 30 -131 67 -48 51 -60 88 -66
201 -6 99 -8 109 -34 134 -21 22 -37 28 -69 28 -54 0 -124 -37 -113 -60 4 -8
9 -243 11 -522 l3 -508 -72 0 c-76 0 -114 15 -140 54 -11 16 -15 84 -19 310
l-5 288 -69 -148 c-156 -335 -178 -377 -225 -427 -25 -27 -60 -56 -78 -63 -50
-21 -218 -18 -268 5 -51 23 -111 89 -124 138 -16 55 -13 309 3 356 21 57 61
103 113 128 42 21 62 24 153 23 58 0 117 -6 133 -12 l27 -12 0 186 c0 117 -4
193 -11 207 -19 37 -52 57 -94 57 -78 0 -105 -44 -105 -168 0 -79 -3 -96 -28
-143 -35 -67 -92 -109 -157 -117 l-47 -5 4 144 c4 155 10 178 64 233 60 59 83
65 267 66 146 0 173 -2 205 -19z m396 13 c13 -5 9 -14 -21 -50 -20 -25 -58
-88 -84 -142 l-48 -97 -1 148 0 147 69 0 c38 0 76 -3 85 -6z m-264 -944 l0
-150 -72 0 c-102 0 -110 8 -64 61 20 24 57 87 83 141 26 54 49 98 50 98 2 0 3
-67 3 -150z"/>
<path d="M8804 2612 c-42 -33 -44 -50 -44 -330 l0 -269 25 -11 c14 -7 47 -12
74 -12 52 0 84 21 102 67 5 13 9 127 9 253 0 126 -4 240 -9 253 -24 63 -108
89 -157 49z"/>
<path d="M9577 2179 c-42 -25 -47 -56 -47 -309 0 -262 4 -285 55 -308 59 -27
161 3 159 47 0 11 -1 142 -2 289 l-2 269 -25 11 c-32 15 -114 15 -138 1z"/>
</g>
</svg>
